<?xml version="1.0" encoding="utf-8"?>
<!-- Generator: Adobe Illustrator 16.0.0, SVG Export Plug-In . SVG Version: 6.00 Build 0)  -->
<!DOCTYPE svg PUBLIC "-//W3C//DTD SVG 1.1//EN" "http://www.w3.org/Graphics/SVG/1.1/DTD/svg11.dtd">
<svg version="1.1" id="Layer_1" xmlns="http://www.w3.org/2000/svg" xmlns:xlink="http://www.w3.org/1999/xlink" x="0px" y="0px"
	 width="230px" height="140px" viewBox="0 0 230 140" enable-background="new 0 0 230 140" xml:space="preserve">
<rect fill="#ED5757" width="230" height="140"/>
<g>
	<path fill="#FFFFFF" d="M57.139,67.196h4.413v7.854c-0.854,0.166-3.654,0.593-5.22,0.593c-4.889,0-6.217-3.179-6.217-8.447
		c0-5.172,1.164-8.588,6.217-8.588c2.491,0,5.22,0.593,5.22,0.593l-0.071,0.829c0,0-2.99-0.616-5.148-0.616
		c-4.461,0-5.314,3.061-5.314,7.782c0,4.744,0.949,7.64,5.314,7.64c1.329,0,3.322-0.285,4.366-0.474v-6.358h-3.561v-0.808H57.139z"
		/>
	<path fill="#FFFFFF" d="M73.009,73.89c0.072,0.688,0.95,0.926,1.781,0.996l-0.048,0.735c-1.02,0-1.922-0.26-2.443-0.996
		c0,0-2.421,1.02-4.794,1.02c-1.945,0-3.107-1.162-3.107-3.464c0-2.018,0.949-3.181,3.274-3.416l4.507-0.474v-1.235
		c0-2.064-0.901-2.895-2.633-2.895c-1.732,0-4.485,0.402-4.485,0.402l-0.071-0.782c0,0,2.657-0.426,4.556-0.426
		c2.396,0,3.464,1.257,3.464,3.7V73.89L73.009,73.89z M67.767,69.499c-1.85,0.191-2.49,1.044-2.49,2.682
		c0,1.732,0.806,2.703,2.254,2.703c2.229,0,4.65-0.971,4.65-0.971v-4.864L67.767,69.499z"/>
	<path fill="#FFFFFF" d="M77.018,58.111h0.831v17.32h-0.831V58.111z"/>
	<path fill="#FFFFFF" d="M81.88,58.111h0.831v17.32H81.88V58.111z"/>
	<path fill="#FFFFFF" d="M94.907,74.672l0.047,0.76c0,0-2.658,0.213-4.39,0.213c-3.534-0.023-4.46-2.277-4.46-6.146
		c0-4.697,2.087-6.146,4.792-6.146c2.919,0,4.508,1.59,4.508,5.694v0.782H86.98c0,3.274,0.854,5.054,3.606,5.054
		C92.249,74.886,94.907,74.672,94.907,74.672z M94.526,69.074c0-3.632-1.164-4.96-3.631-4.96c-2.372,0-3.915,1.354-3.915,4.96
		H94.526z"/>
	<path fill="#FFFFFF" d="M98.511,63.567h0.831v1.851c0,0,2.087-1.589,4.698-2.087v0.854c-2.326,0.475-4.698,2.018-4.698,2.018v9.229
		h-0.831V63.567z"/>
	<path fill="#FFFFFF" d="M106.03,63.567l3.488,11.104h0.972l3.511-11.104h0.877l-5.433,17.321h-0.877l1.708-5.457h-1.447
		l-3.678-11.864H106.03z"/>
	<path fill="#FFFFFF" d="M122.992,58.821h0.854v16.61h-0.854V58.821z"/>
	<path fill="#FFFFFF" d="M127.903,75.432V63.567h0.829v0.951c0,0,1.852-1.163,3.893-1.163c1.755,0,2.608,0.379,3.178,1.279
		c0,0,2.041-1.279,4.365-1.279c3.228,0,3.893,1.305,3.893,5.908v6.168h-0.832v-6.121c0-4.034-0.426-5.196-3.061-5.196
		c-2.301,0-4.079,1.162-4.079,1.162c0.332,0.9,0.426,2.206,0.426,3.986v6.169h-0.829v-6.121c0-4.034-0.427-5.196-3.061-5.196
		c-2.111,0-3.893,1.187-3.893,1.187v10.131H127.903z"/>
	<path fill="#FFFFFF" d="M155.564,73.89c0.071,0.688,0.948,0.926,1.779,0.996l-0.048,0.735c-1.02,0-1.922-0.26-2.443-0.996
		c0,0-2.419,1.02-4.793,1.02c-1.945,0-3.107-1.162-3.107-3.464c0-2.018,0.949-3.181,3.273-3.416l4.508-0.474v-1.235
		c0-2.064-0.901-2.895-2.633-2.895s-4.485,0.402-4.485,0.402l-0.07-0.782c0,0,2.657-0.426,4.556-0.426
		c2.395,0,3.464,1.257,3.464,3.7V73.89L155.564,73.89z M150.322,69.499c-1.852,0.191-2.491,1.044-2.491,2.682
		c0,1.732,0.805,2.703,2.253,2.703c2.229,0,4.65-0.971,4.65-0.971v-4.864L150.322,69.499z"/>
	<path fill="#FFFFFF" d="M158.932,77.329c0-1.565,0.735-2.111,2.017-3.037c-0.38-0.236-0.521-0.806-0.521-1.542
		c0-0.355,0.71-1.851,0.71-1.851c-1.09-0.355-2.039-1.329-2.039-3.606c0-2.824,1.519-3.962,4.057-3.962
		c1.28,0,2.515,0.309,2.515,0.309l3.321-0.072v0.831h-2.563c0.593,0.546,0.949,1.258,0.949,2.895c0,2.918-1.401,3.893-4.319,3.893
		c-0.189,0-0.997-0.047-1.28-0.097c0,0-0.546,1.354-0.546,1.661c0,1.163,0.142,1.282,3.251,1.282c2.942,0,4.199,0.474,4.199,3.417
		c0,2.562-1.518,3.653-5.052,3.653C159.69,81.103,158.932,80.13,158.932,77.329z M161.565,74.719
		c-1.376,0.949-1.78,1.448-1.78,2.587c0,2.255,0.592,3.037,3.868,3.037c2.942,0,4.152-0.855,4.152-2.896
		c0-2.396-0.974-2.657-3.37-2.657C163.464,74.792,161.565,74.719,161.565,74.719z M166.501,67.293c0-2.372-0.879-3.204-3.37-3.204
		c-2.229,0-3.179,0.832-3.179,3.204s0.949,3.133,3.179,3.133C165.622,70.423,166.501,69.665,166.501,67.293z"/>
	<path fill="#FFFFFF" d="M179.618,74.672l0.047,0.76c0,0-2.657,0.213-4.389,0.213c-3.536-0.023-4.461-2.277-4.461-6.146
		c0-4.697,2.087-6.146,4.794-6.146c2.917,0,4.506,1.59,4.506,5.694v0.782h-8.422c0,3.274,0.854,5.054,3.606,5.054
		C176.961,74.886,179.618,74.672,179.618,74.672z M179.239,69.074c0-3.632-1.162-4.96-3.63-4.96c-2.374,0-3.916,1.354-3.916,4.96
		H179.239z"/>
</g>
</svg>
