<?xml version="1.0" encoding="utf-8"?>
<!-- Generator: Adobe Illustrator 16.0.0, SVG Export Plug-In . SVG Version: 6.00 Build 0)  -->
<!DOCTYPE svg PUBLIC "-//W3C//DTD SVG 1.1//EN" "http://www.w3.org/Graphics/SVG/1.1/DTD/svg11.dtd">
<svg version="1.1" id="Layer_1" xmlns="http://www.w3.org/2000/svg" xmlns:xlink="http://www.w3.org/1999/xlink" x="0px" y="0px"
	 width="346px" height="140px" viewBox="0 0 346 140" enable-background="new 0 0 346 140" xml:space="preserve">
<rect fill="#ED5757" width="346" height="140"/>
<g>
	<path fill="#FFFFFF" d="M131.207,70.047h-7.45V76h-0.642V63.523h0.642v5.918h7.45v-5.918h0.642V76h-0.642V70.047z"/>
	<path fill="#FFFFFF" d="M141.043,75.43l0.036,0.57c0,0-1.996,0.16-3.297,0.16c-2.656-0.018-3.351-1.711-3.351-4.616
		c0-3.528,1.568-4.616,3.6-4.616c2.192,0,3.386,1.194,3.386,4.277v0.588h-6.327c0,2.459,0.642,3.796,2.709,3.796
		C139.047,75.59,141.043,75.43,141.043,75.43z M140.758,71.225c0-2.728-0.873-3.726-2.727-3.726c-1.782,0-2.94,1.017-2.94,3.726
		H140.758z"/>
	<path fill="#FFFFFF" d="M149.667,74.842c0.054,0.518,0.713,0.695,1.337,0.748l-0.036,0.553c-0.766,0-1.444-0.195-1.835-0.748
		c0,0-1.818,0.766-3.601,0.766c-1.461,0-2.334-0.873-2.334-2.602c0-1.516,0.713-2.39,2.459-2.566l3.386-0.355v-0.928
		c0-1.551-0.677-2.175-1.978-2.175c-1.301,0-3.369,0.303-3.369,0.303l-0.053-0.588c0,0,1.996-0.319,3.422-0.319
		c1.8,0,2.602,0.943,2.602,2.779V74.842L149.667,74.842z M145.729,71.544c-1.39,0.144-1.871,0.784-1.871,2.015
		c0,1.301,0.605,2.03,1.693,2.03c1.675,0,3.493-0.729,3.493-0.729v-3.653L145.729,71.544z"/>
	<path fill="#FFFFFF" d="M158.934,76h-0.624v-0.749c0,0-1.461,0.909-3.083,0.909c-1.105,0-3.03-0.143-3.03-4.473
		c0-3.065,0.837-4.758,3.76-4.758c0.838,0,1.907,0.143,2.353,0.213V62.99h0.624V76z M158.31,74.663v-6.95
		c-0.463-0.07-1.657-0.214-2.353-0.214c-2.53,0-3.101,1.532-3.101,4.188c0,3.6,1.372,3.902,2.37,3.902
		C156.759,75.59,158.31,74.663,158.31,74.663z"/>
	<path fill="#FFFFFF" d="M167.985,75.43l0.036,0.57c0,0-1.996,0.16-3.297,0.16c-2.656-0.018-3.351-1.711-3.351-4.616
		c0-3.528,1.568-4.616,3.6-4.616c2.192,0,3.386,1.194,3.386,4.277v0.588h-6.327c0,2.459,0.642,3.796,2.709,3.796
		C165.989,75.59,167.985,75.43,167.985,75.43z M167.7,71.225c0-2.728-0.873-3.726-2.727-3.726c-1.782,0-2.94,1.017-2.94,3.726H167.7
		z"/>
	<path fill="#FFFFFF" d="M170.693,67.089h0.624v1.39c0,0,1.568-1.193,3.529-1.567v0.642c-1.747,0.356-3.529,1.516-3.529,1.516V76
		h-0.624V67.089z"/>
	<path fill="#FFFFFF" d="M180.689,63.523h0.642V76h-0.642V63.523z"/>
	<path fill="#FFFFFF" d="M184.378,76v-8.911h0.624v0.714c0,0,1.391-0.873,2.923-0.873c1.319,0,1.96,0.284,2.388,0.961
		c0,0,1.533-0.961,3.279-0.961c2.424,0,2.924,0.979,2.924,4.438V76h-0.625v-4.598c0-3.03-0.32-3.903-2.299-3.903
		c-1.729,0-3.064,0.873-3.064,0.873c0.25,0.677,0.32,1.657,0.32,2.994V76h-0.623v-4.598c0-3.03-0.322-3.903-2.3-3.903
		c-1.586,0-2.923,0.892-2.923,0.892V76H184.378z"/>
	<path fill="#FFFFFF" d="M205.154,74.842c0.055,0.518,0.714,0.695,1.338,0.748l-0.036,0.553c-0.767,0-1.444-0.195-1.835-0.748
		c0,0-1.818,0.766-3.602,0.766c-1.461,0-2.334-0.873-2.334-2.602c0-1.516,0.713-2.39,2.459-2.566l3.387-0.355v-0.928
		c0-1.551-0.678-2.175-1.979-2.175s-3.369,0.303-3.369,0.303l-0.053-0.588c0,0,1.996-0.319,3.422-0.319
		c1.801,0,2.602,0.943,2.602,2.779V74.842L205.154,74.842z M201.217,71.544c-1.39,0.144-1.871,0.784-1.871,2.015
		c0,1.301,0.605,2.03,1.693,2.03c1.675,0,3.493-0.729,3.493-0.729v-3.653L201.217,71.544z"/>
	<path fill="#FFFFFF" d="M207.686,77.426c0-1.176,0.551-1.586,1.515-2.281c-0.285-0.178-0.394-0.605-0.394-1.158
		c0-0.268,0.535-1.391,0.535-1.391c-0.82-0.267-1.533-0.998-1.533-2.709c0-2.121,1.142-2.976,3.049-2.976
		c0.961,0,1.889,0.231,1.889,0.231l2.495-0.054v0.624h-1.925c0.445,0.41,0.713,0.944,0.713,2.174c0,2.192-1.051,2.924-3.244,2.924
		c-0.143,0-0.749-0.035-0.962-0.072c0,0-0.41,1.017-0.41,1.248c0,0.873,0.106,0.963,2.44,0.963c2.211,0,3.154,0.355,3.154,2.566
		c0,1.924-1.141,2.744-3.796,2.744C208.255,80.26,207.686,79.529,207.686,77.426z M209.663,75.465
		c-1.033,0.713-1.336,1.088-1.336,1.943c0,1.693,0.446,2.281,2.905,2.281c2.209,0,3.119-0.643,3.119-2.176
		c0-1.8-0.73-1.996-2.531-1.996C211.089,75.52,209.663,75.465,209.663,75.465z M213.37,69.887c0-1.781-0.659-2.406-2.53-2.406
		c-1.676,0-2.389,0.625-2.389,2.406c0,1.782,0.713,2.354,2.389,2.354C212.711,72.238,213.37,71.669,213.37,69.887z"/>
	<path fill="#FFFFFF" d="M223.225,75.43L223.26,76c0,0-1.996,0.16-3.297,0.16c-2.654-0.018-3.352-1.711-3.352-4.616
		c0-3.528,1.568-4.616,3.601-4.616c2.192,0,3.386,1.194,3.386,4.277v0.588h-6.326c0,2.459,0.642,3.796,2.709,3.796
		C221.229,75.59,223.225,75.43,223.225,75.43z M222.939,71.225c0-2.728-0.875-3.726-2.728-3.726c-1.782,0-2.94,1.017-2.94,3.726
		H222.939z"/>
</g>
</svg>
